<?xml version="1.0" standalone="no"?>
<!DOCTYPE svg PUBLIC "-//W3C//DTD SVG 20010904//EN"
 "http://www.w3.org/TR/2001/REC-SVG-20010904/DTD/svg10.dtd">
<svg version="1.0" xmlns="http://www.w3.org/2000/svg"
 width="946.000000pt" height="2048.000000pt" viewBox="0 0 946.000000 2048.000000"
 preserveAspectRatio="xMidYMid meet">
<metadata>
Created by potrace 1.16, written by Peter Selinger 2001-2019
</metadata>
<g transform="translate(0.000000,2048.000000) scale(0.100000,-0.100000)"
fill="#000000" stroke="none">
<path d="M0 10240 l0 -10240 4730 0 4730 0 0 10240 0 10240 -4730 0 -4730 0 0
-10240z m5326 4534 c359 -190 676 -364 1189 -651 88 -50 283 -158 432 -242
150 -83 323 -181 385 -218 62 -36 137 -79 166 -95 47 -27 71 -47 40 -35 -18 6
-12 -244 5 -255 8 -5 5 -8 -8 -8 -18 -1 -17 -2 5 -15 14 -8 21 -14 17 -15 -36
-1 -2170 1177 -2267 1252 -47 37 -59 101 -44 247 4 37 11 61 19 61 7 0 34 -12
61 -26z m-1683 -106 c17 -19 17 -280 0 -273 -7 2 -13 -1 -13 -8 0 -7 -17 -22
-38 -33 -20 -12 -138 -80 -262 -151 -124 -71 -301 -171 -395 -223 -93 -51
-190 -104 -215 -118 -151 -84 -606 -330 -663 -358 -37 -19 -72 -32 -78 -29 -5
4 -9 3 -8 -2 4 -20 -2 -24 -18 -12 -15 12 -16 12 -10 -5 5 -14 3 -17 -8 -13
-8 4 -17 2 -20 -3 -16 -26 -20 0 -18 122 1 86 -2 135 -9 139 -6 4 -2 12 12 19
18 10 21 10 15 -2 -3 -7 -1 -6 7 3 12 14 213 139 223 139 3 0 26 13 52 29 48
29 381 218 483 274 30 16 84 47 120 67 127 73 427 238 555 305 72 38 162 86
200 107 81 44 73 41 88 26z m4316 -3430 l-1 -333 -18 90 c-43 216 -148 369
-312 453 -74 39 -62 40 62 6 212 -57 239 -47 256 91 3 25 3 25 9 25 3 0 5
-150 4 -332z m-5852 247 c65 -9 167 -27 228 -40 166 -38 203 -33 229 28 13 29
14 4 15 -228 l0 -260 -18 57 c-75 233 -319 408 -626 447 l-70 8 62 2 c34 0
115 -6 180 -14z m3748 -25 c320 -86 556 -320 646 -640 21 -75 24 -106 24 -270
0 -174 -2 -191 -28 -279 -52 -172 -134 -309 -253 -420 -118 -111 -267 -194
-424 -237 -108 -30 -161 -30 -60 -1 213 63 387 214 496 429 56 111 88 224 104
362 55 490 -225 933 -675 1066 l-70 20 80 -4 c44 -3 116 -14 160 -26z m1445
18 c-204 -87 -272 -176 -272 -353 0 -90 13 -128 73 -221 l39 -60 -22 -75 c-12
-41 -25 -78 -30 -84 -13 -15 -131 113 -162 177 -56 115 -56 276 -1 396 57 122
226 229 365 230 34 1 34 0 10 -10z m-3966 -22 c-89 -41 -104 -111 -104 -491 0
-234 -7 -293 -44 -385 -8 -19 -29 -81 -46 -138 -18 -57 -35 -101 -38 -97 -3 3
-9 225 -13 493 -4 315 -11 499 -18 522 -18 55 -43 80 -102 100 l-54 19 235 0
235 0 -51 -23z m780 15 c9 -13 96 -368 96 -388 0 -10 -12 5 -26 32 -75 141
-184 255 -297 309 -41 20 -85 37 -98 37 -21 1 -20 2 6 9 42 11 313 12 319 1z
m1035 -64 c-2 -2 -25 -18 -50 -35 -175 -118 -305 -309 -366 -537 -23 -89 -26
-119 -27 -275 -1 -148 3 -191 23 -281 18 -82 21 -111 12 -127 -6 -11 -11 -30
-11 -41 0 -10 -5 -21 -10 -23 -6 -2 -13 -18 -15 -37 -2 -19 -6 -35 -8 -38 -8
-7 -59 80 -91 156 -59 138 -71 198 -71 381 0 144 3 175 24 245 74 253 244 456
480 576 31 16 64 29 73 29 9 0 20 5 23 11 4 6 10 8 13 5 3 -3 3 -8 1 -9z
m-3916 -189 c-6 -7 -14 -31 -17 -52 -4 -22 -18 -61 -31 -88 -13 -27 -21 -56
-18 -64 3 -8 1 -14 -4 -14 -5 0 -15 -19 -21 -42 -22 -86 -46 -163 -53 -168 -3
-3 -10 -21 -14 -40 -10 -47 -104 -329 -120 -360 -13 -24 -13 -23 -21 25 -14
80 -9 263 9 337 25 101 72 216 117 286 43 66 156 192 172 192 7 0 7 -4 1 -12z
m2666 -680 l0 -323 -18 61 c-20 70 -44 108 -105 161 -47 41 -166 93 -218 94
-24 0 -15 5 37 18 162 40 257 127 285 259 7 28 14 52 16 52 2 0 4 -145 3 -322z
m3559 105 c298 -154 420 -242 501 -362 118 -174 101 -398 -39 -539 -169 -170
-477 -216 -840 -126 -58 15 -121 27 -141 27 -33 1 -35 3 -20 17 9 8 16 20 17
25 1 37 18 84 27 78 6 -3 7 -1 3 5 -4 7 -4 16 -1 22 3 5 40 -19 81 -54 167
-139 348 -187 525 -138 128 36 221 107 271 210 28 56 34 80 36 152 8 189 -77
299 -353 456 -314 178 -308 174 -292 192 8 9 18 41 22 70 5 35 12 52 21 52 8
0 89 -39 182 -87z m-6293 -498 c41 -110 136 -247 228 -332 113 -102 260 -179
410 -213 70 -16 76 -18 41 -19 -23 -1 -79 6 -125 14 -265 46 -484 180 -611
374 -51 78 -57 94 -33 85 11 -5 13 -2 9 11 -4 9 -2 34 5 56 37 130 33 121 45
96 7 -12 20 -44 31 -72z m3084 -342 c-29 -109 -55 -202 -60 -207 -4 -5 -85 -5
-186 0 -110 5 -162 10 -137 14 133 20 292 158 391 340 21 38 39 66 41 61 2 -5
-20 -99 -49 -208z m-1019 95 c1 -158 25 -239 83 -273 26 -16 60 -20 192 -25
l160 -7 -150 -1 c-82 -1 -207 1 -277 5 -124 6 -165 15 -142 31 6 4 14 24 18
46 4 21 11 46 16 55 12 24 80 244 80 259 0 6 5 12 10 12 6 0 10 -41 10 -102z
m1775 -104 c174 -132 294 -184 495 -210 l105 -13 -130 4 c-194 7 -327 46 -478
142 -55 35 -67 47 -58 57 7 8 11 18 10 22 -4 22 2 48 9 39 4 -5 25 -24 47 -41z
m-1595 -865 c0 -87 -4 -159 -8 -159 -4 0 -13 5 -20 12 -9 9 -16 8 -30 -5 -23
-21 -46 -22 -61 -3 -9 11 -4 15 29 20 48 7 60 27 60 94 0 57 -11 70 -65 79
-33 5 -35 7 -21 22 13 12 22 13 45 4 17 -6 32 -8 35 -5 3 3 6 26 6 52 0 26 3
50 6 53 19 18 24 -19 24 -164z m592 131 c57 -44 77 -160 40 -230 -24 -44 -78
-76 -115 -66 -39 9 -33 23 12 31 62 10 86 44 86 119 0 93 -32 136 -100 136
-24 0 -32 10 -18 23 13 14 71 6 95 -13z m901 -71 c36 -16 47 -50 47 -140 0
-71 -2 -80 -17 -77 -15 3 -19 18 -23 93 -5 87 -6 90 -32 99 -22 8 -32 6 -48
-9 -17 -15 -20 -30 -20 -102 0 -76 -2 -83 -20 -83 -18 0 -20 7 -20 83 0 58 -5
89 -15 103 -8 10 -15 22 -15 27 0 11 28 8 49 -5 14 -9 23 -8 42 5 28 20 40 21
72 6z m2625 -1556 c-2 -80 0 -99 10 -91 8 7 12 7 12 0 0 -6 -8 -16 -17 -21
-10 -6 -14 -11 -9 -11 26 -1 -177 -121 -597 -354 -126 -70 -279 -155 -340
-190 -197 -111 -846 -470 -1012 -558 -348 -186 -331 -178 -352 -162 -17 14
-17 15 3 9 19 -5 20 -2 16 87 -3 51 -9 95 -14 97 -5 1 -1 12 8 23 11 11 14 22
9 26 -17 12 -16 32 1 32 8 0 13 4 10 8 -9 16 408 253 1539 874 110 61 238 132
285 158 227 126 408 220 426 220 8 0 15 6 16 13 4 38 9 -73 6 -160z m-5598
-21 c19 -11 85 -45 145 -77 61 -32 139 -74 175 -93 36 -19 99 -53 140 -75 41
-22 118 -64 170 -92 52 -29 228 -126 390 -216 314 -173 640 -360 679 -391 13
-10 18 -18 10 -18 -8 0 -5 -6 7 -15 18 -14 18 -14 -6 -16 -17 -1 -20 -3 -7 -6
15 -4 17 -17 17 -93 0 -61 -4 -90 -12 -93 -8 -3 -6 -6 5 -6 21 -1 23 -21 1
-21 -8 0 -12 -4 -9 -10 17 -27 -46 0 -239 102 -193 102 -320 172 -781 431 -88
49 -198 111 -245 137 -47 26 -141 80 -210 120 -69 40 -145 84 -170 98 -79 44
-116 72 -97 72 10 0 16 4 13 9 -3 5 -16 7 -28 3 -15 -4 -19 -2 -13 7 4 7 18
11 31 8 13 -2 24 0 24 4 0 5 -5 9 -11 9 -7 0 -10 31 -7 95 l3 95 -27 9 c-27
10 -39 31 -18 31 6 0 10 -4 10 -9 0 -5 11 -11 25 -13 14 -3 25 -1 25 3 0 5 -6
9 -14 9 -8 0 -18 5 -21 10 -9 15 6 12 45 -8z"/>
</g>
</svg>
